<svg version="1.1" id="Layer_1" xmlns="http://www.w3.org/2000/svg" xmlns:xlink="http://www.w3.org/1999/xlink" x="0px" y="0px"
	 width="100%" viewBox="0 0 180 180" enable-background="new 0 0 180 180" xml:space="preserve">
<path fill="#1B1D27" opacity="1.000000" stroke="none" 
	d="
M103.000000,181.000000 
	C68.666672,181.000000 34.833336,181.000000 1.000005,181.000000 
	C1.000003,121.000008 1.000003,61.000011 1.000002,1.000013 
	C60.999989,1.000008 120.999977,1.000008 180.999969,1.000004 
	C180.999985,60.999985 180.999985,120.999969 181.000000,180.999969 
	C155.166672,181.000000 129.333328,181.000000 103.000000,181.000000 
M20.080107,159.730118 
	C22.859711,162.090469 25.799685,164.289490 28.377924,166.852402 
	C31.529007,169.984787 35.034973,171.154556 39.513508,171.040588 
	C50.617634,170.757996 61.733795,170.956894 72.845100,170.944519 
	C80.269691,170.936249 81.966232,169.256180 82.006561,162.012466 
	C82.047165,154.718689 82.113495,147.425034 82.684631,140.544647 
	C83.822220,142.733292 84.803955,145.021927 86.130409,147.089401 
	C88.750313,151.172913 91.561043,155.133987 94.633385,159.668915 
	C97.039795,161.714645 99.671432,163.551544 101.803833,165.851318 
	C105.754059,170.111618 110.431801,171.200623 116.120293,171.066559 
	C130.589493,170.725601 145.072495,171.005737 159.548752,170.886566 
	C161.357590,170.871674 163.158951,169.948517 164.963776,169.446198 
	C164.358002,167.515839 164.182816,165.285645 163.079788,163.701523 
	C152.154968,148.011795 141.072296,132.432022 130.050186,116.809914 
	C129.233810,115.652824 128.540436,114.408974 127.662483,113.001198 
	C130.919662,111.591301 133.819473,110.420868 136.647278,109.096657 
	C146.294022,104.579239 152.594666,97.280159 154.687805,86.713715 
	C156.763687,76.234367 156.332748,65.779625 152.822968,55.694920 
	C149.413193,45.897530 143.621506,37.779938 133.753830,32.301731 
	C122.956230,19.818768 109.085083,12.790543 92.848495,12.091455 
	C69.255157,11.075614 45.608421,11.242347 21.983250,11.070904 
	C17.142206,11.035773 15.466825,13.360379 15.464594,19.055687 
	C15.447374,63.006931 15.480888,106.958237 15.408504,150.909363 
	C15.402449,154.585510 16.298992,157.446503 20.080107,159.730118 
z"/>
<path fill="#FD0146" opacity="1.000000" stroke="none" 
	d="
M94.292870,159.145691 
	C91.561043,155.133987 88.750313,151.172913 86.130409,147.089401 
	C84.803955,145.021927 83.822220,142.733292 82.339630,139.974274 
	C77.609940,130.821411 73.225258,122.238945 68.840584,113.656479 
	C67.960739,125.354507 67.961105,136.673203 67.960625,147.991882 
	C67.960213,157.771347 66.775307,158.962891 57.209087,158.988312 
	C44.720016,159.021484 32.231037,159.089081 19.742016,159.141861 
	C16.298992,157.446503 15.402449,154.585510 15.408504,150.909363 
	C15.480888,106.958237 15.447374,63.006931 15.464594,19.055687 
	C15.466825,13.360379 17.142206,11.035773 21.983250,11.070904 
	C45.608421,11.242347 69.255157,11.075614 92.848495,12.091455 
	C109.085083,12.790543 122.956230,19.818768 133.865051,32.953430 
	C139.686478,42.632633 141.745529,52.661411 141.680313,63.147686 
	C141.559555,82.564934 135.073273,91.936592 117.027840,99.374374 
	C115.857788,99.856636 114.758827,100.511360 113.370110,101.216141 
	C125.450752,118.275558 137.309113,134.953003 149.047699,151.714340 
	C150.094635,153.209244 150.363815,155.248856 150.994202,157.035461 
	C149.087570,157.682999 147.187332,158.870865 145.273315,158.893509 
	C128.281219,159.094788 111.286690,159.089813 94.292870,159.145691 
M88.949120,62.649582 
	C87.379288,54.361973 77.793449,48.715870 70.224411,51.867104 
	C69.132584,52.321663 68.186211,54.317196 68.065453,55.678806 
	C67.759804,59.125210 67.961441,62.616684 67.961334,66.090103 
	C67.961014,77.299736 69.570091,78.491219 80.684166,75.485283 
	C81.155602,75.357780 81.585991,75.078476 82.721016,74.835793 
	C87.521675,72.528793 89.460297,68.682076 88.949120,62.649582 
M118.883736,118.616997 
	C117.820107,117.133476 116.798538,115.617470 115.683319,114.173805 
	C113.855736,111.807983 111.543983,110.532364 108.866081,112.589874 
	C106.269203,114.585144 106.618866,117.025650 108.466125,119.568459 
	C112.756996,125.474998 116.874146,131.507660 121.158806,137.418823 
	C122.864037,139.771378 125.145851,141.254623 127.925003,139.147629 
	C130.511993,137.186325 130.393539,134.761215 128.505356,132.193451 
	C125.360130,127.916153 122.335106,123.550461 118.883736,118.616997 
M108.413025,109.302269 
	C108.251755,107.345238 108.564369,105.146080 107.738037,103.528870 
	C107.295898,102.663559 104.124336,102.038986 103.527283,102.639893 
	C102.160889,104.015114 100.536591,106.515251 100.958076,108.011948 
	C101.987480,111.667412 104.866745,111.985329 108.413025,109.302269 
z"/>
<path fill="#9CF9F8" opacity="1.000000" stroke="none" 
	d="
M94.463127,159.407303 
	C111.286690,159.089813 128.281219,159.094788 145.273315,158.893509 
	C147.187332,158.870865 149.087570,157.682999 150.994202,157.035461 
	C150.363815,155.248856 150.094635,153.209244 149.047699,151.714340 
	C137.309113,134.953003 125.450752,118.275558 113.370110,101.216141 
	C114.758827,100.511360 115.857788,99.856636 117.027840,99.374374 
	C135.073273,91.936592 141.559555,82.564934 141.680313,63.147686 
	C141.745529,52.661411 139.686478,42.632633 134.031891,33.240437 
	C143.621506,37.779938 149.413193,45.897530 152.822968,55.694920 
	C156.332748,65.779625 156.763687,76.234367 154.687805,86.713715 
	C152.594666,97.280159 146.294022,104.579239 136.647278,109.096657 
	C133.819473,110.420868 130.919662,111.591301 127.662483,113.001198 
	C128.540436,114.408974 129.233810,115.652824 130.050186,116.809914 
	C141.072296,132.432022 152.154968,148.011795 163.079788,163.701523 
	C164.182816,165.285645 164.358002,167.515839 164.963776,169.446198 
	C163.158951,169.948517 161.357590,170.871674 159.548752,170.886566 
	C145.072495,171.005737 130.589493,170.725601 116.120293,171.066559 
	C110.431801,171.200623 105.754059,170.111618 101.803833,165.851318 
	C99.671432,163.551544 97.039795,161.714645 94.463127,159.407303 
z"/>
<path fill="#9CFCFA" opacity="1.000000" stroke="none" 
	d="
M19.911060,159.435989 
	C32.231037,159.089081 44.720016,159.021484 57.209087,158.988312 
	C66.775307,158.962891 67.960213,157.771347 67.960625,147.991882 
	C67.961105,136.673203 67.960739,125.354507 68.840584,113.656479 
	C73.225258,122.238945 77.609940,130.821411 82.081589,139.767609 
	C82.113495,147.425034 82.047165,154.718689 82.006561,162.012466 
	C81.966232,169.256180 80.269691,170.936249 72.845100,170.944519 
	C61.733795,170.956894 50.617634,170.757996 39.513508,171.040588 
	C35.034973,171.154556 31.529007,169.984787 28.377924,166.852402 
	C25.799685,164.289490 22.859711,162.090469 19.911060,159.435989 
z"/>
<path fill="#9DFCFA" opacity="1.000000" stroke="none" 
	d="
M82.035500,74.869896 
	C81.585991,75.078476 81.155602,75.357780 80.684166,75.485283 
	C69.570091,78.491219 67.961014,77.299736 67.961334,66.090103 
	C67.961441,62.616684 67.759804,59.125210 68.065453,55.678806 
	C68.186211,54.317196 69.132584,52.321663 70.224411,51.867104 
	C77.793449,48.715870 87.379288,54.361973 88.501205,63.057434 
	C83.476830,62.932129 81.322029,64.748329 81.949707,69.535225 
	C82.179413,71.287079 82.018311,73.090179 82.035500,74.869896 
z"/>
<path fill="#ECE6E5" opacity="1.000000" stroke="none" 
	d="
M119.071594,118.919495 
	C122.335106,123.550461 125.360130,127.916153 128.505356,132.193451 
	C130.393539,134.761215 130.511993,137.186325 127.925003,139.147629 
	C125.145851,141.254623 122.864037,139.771378 121.158806,137.418823 
	C116.874146,131.507660 112.756996,125.474998 108.466125,119.568459 
	C106.618866,117.025650 106.269203,114.585144 108.866081,112.589874 
	C111.543983,110.532364 113.855736,111.807983 115.683319,114.173805 
	C116.798538,115.617470 117.820107,117.133476 119.071594,118.919495 
z"/>
<path fill="#EDE0E1" opacity="1.000000" stroke="none" 
	d="
M108.176270,109.576645 
	C104.866745,111.985329 101.987480,111.667412 100.958076,108.011948 
	C100.536591,106.515251 102.160889,104.015114 103.527283,102.639893 
	C104.124336,102.038986 107.295898,102.663559 107.738037,103.528870 
	C108.564369,105.146080 108.251755,107.345238 108.176270,109.576645 
z"/>
<path fill="#23252E" opacity="1.000000" stroke="none" 
	d="
M82.378258,74.852844 
	C82.018311,73.090179 82.179413,71.287079 81.949707,69.535225 
	C81.322029,64.748329 83.476830,62.932129 88.447281,63.462341 
	C89.460297,68.682076 87.521675,72.528793 82.378258,74.852844 
z"/>
</svg>